<svg width="16" height="16" viewBox="0 0 16 16" fill="none"
    xmlns="http://www.w3.org/2000/svg">
    <path
        d="M7.33334 8C7.33334 8.17681 7.40358 8.34638 7.52861 8.4714C7.65363 8.59643 7.8232 8.66667 8.00001 8.66667C8.17682 8.66667 8.34639 8.59643 8.47141 8.4714C8.59644 8.34638 8.66668 8.17681 8.66668 8C8.66668 7.82319 8.59644 7.65362 8.47141 7.52859C8.34639 7.40357 8.17682 7.33333 8.00001 7.33333C7.8232 7.33333 7.65363 7.40357 7.52861 7.52859C7.40358 7.65362 7.33334 7.82319 7.33334 8Z"
        fill="#131313" />
    <path
        d="M7.33334 12.6667C7.33334 12.8435 7.40358 13.013 7.52861 13.1381C7.65363 13.2631 7.8232 13.3333 8.00001 13.3333C8.17682 13.3333 8.34639 13.2631 8.47141 13.1381C8.59644 13.013 8.66668 12.8435 8.66668 12.6667C8.66668 12.4899 8.59644 12.3203 8.47141 12.1953C8.34639 12.0702 8.17682 12 8.00001 12C7.8232 12 7.65363 12.0702 7.52861 12.1953C7.40358 12.3203 7.33334 12.4899 7.33334 12.6667Z"
        fill="#131313" />
    <path
        d="M7.33334 3.33333C7.33334 3.51014 7.40358 3.67971 7.52861 3.80474C7.65363 3.92976 7.8232 4 8.00001 4C8.17682 4 8.34639 3.92976 8.47141 3.80474C8.59644 3.67971 8.66668 3.51014 8.66668 3.33333C8.66668 3.15652 8.59644 2.98695 8.47141 2.86193C8.34639 2.7369 8.17682 2.66667 8.00001 2.66667C7.8232 2.66667 7.65363 2.7369 7.52861 2.86193C7.40358 2.98695 7.33334 3.15652 7.33334 3.33333Z"
        fill="#131313" />
    <path
        d="M7.33334 8C7.33334 8.17681 7.40358 8.34638 7.52861 8.4714C7.65363 8.59643 7.8232 8.66667 8.00001 8.66667C8.17682 8.66667 8.34639 8.59643 8.47141 8.4714C8.59644 8.34638 8.66668 8.17681 8.66668 8C8.66668 7.82319 8.59644 7.65362 8.47141 7.52859C8.34639 7.40357 8.17682 7.33333 8.00001 7.33333C7.8232 7.33333 7.65363 7.40357 7.52861 7.52859C7.40358 7.65362 7.33334 7.82319 7.33334 8Z"
        stroke="currentColor" stroke-width="1.25" stroke-linecap="round" stroke-linejoin="round" />
    <path
        d="M7.33334 12.6667C7.33334 12.8435 7.40358 13.013 7.52861 13.1381C7.65363 13.2631 7.8232 13.3333 8.00001 13.3333C8.17682 13.3333 8.34639 13.2631 8.47141 13.1381C8.59644 13.013 8.66668 12.8435 8.66668 12.6667C8.66668 12.4899 8.59644 12.3203 8.47141 12.1953C8.34639 12.0702 8.17682 12 8.00001 12C7.8232 12 7.65363 12.0702 7.52861 12.1953C7.40358 12.3203 7.33334 12.4899 7.33334 12.6667Z"
        stroke="currentColor" stroke-width="1.25" stroke-linecap="round" stroke-linejoin="round" />
    <path
        d="M7.33334 3.33333C7.33334 3.51014 7.40358 3.67971 7.52861 3.80474C7.65363 3.92976 7.8232 4 8.00001 4C8.17682 4 8.34639 3.92976 8.47141 3.80474C8.59644 3.67971 8.66668 3.51014 8.66668 3.33333C8.66668 3.15652 8.59644 2.98695 8.47141 2.86193C8.34639 2.7369 8.17682 2.66667 8.00001 2.66667C7.8232 2.66667 7.65363 2.7369 7.52861 2.86193C7.40358 2.98695 7.33334 3.15652 7.33334 3.33333Z"
        stroke="currentColor" stroke-width="1.25" stroke-linecap="round" stroke-linejoin="round" />
</svg>